<svg width="112" height="60" viewBox="0 0 112 60" fill="none" xmlns="http://www.w3.org/2000/svg">
<path d="M0 0H112V52.5L0 58L0 0Z" fill="#D40035"/>
<path d="M56.8714 20.0056L58.0847 23.1117H66.771L67.9844 20.0056H56.8714Z" fill="#ECFD00"/>
<path d="M39.8277 20.0056H46.9661C50.4531 20.0056 52.6246 21.8659 52.6246 24.7318C52.6246 26.4749 51.7175 27.838 50.2376 28.4022C52.1484 28.9888 53.2937 30.4972 53.2937 32.3743C53.2937 35.5978 50.9804 37.6425 47.0625 37.6425H39.8277V20.0056ZM46.3481 27.1117C47.8506 27.1117 48.7578 26.3575 48.7578 25.1341C48.7578 23.9106 47.8959 23.1117 46.4445 23.1117H43.6265V27.1117H46.3481ZM46.6542 34.5419C48.4459 34.5419 49.3985 33.5084 49.3985 32.2346C49.3985 30.9609 48.514 30.0726 46.6769 30.0726H43.6208V34.5419H46.6542Z" fill="white"/>
<path d="M56.0662 31.3799C56.0662 27.5419 58.612 24.8603 62.4222 24.8603C66.2324 24.8603 68.7782 27.5363 68.7782 31.3799C68.7782 35.2234 66.2324 38 62.4222 38C58.612 38 56.0662 35.2737 56.0662 31.3799ZM64.9907 31.3966C64.9907 29.6089 63.9984 28.3799 62.4279 28.3799C60.8573 28.3799 59.8651 29.6033 59.8651 31.3966C59.8651 33.1899 60.8573 34.486 62.4279 34.486C63.9984 34.486 64.9907 33.2346 64.9907 31.3966Z" fill="white"/>
<path d="M72.5373 20.0056H76.2625L83.7354 31.2905V20.0726H87.4605V37.7095H83.7354L76.2625 26.6089V37.6369H72.5373V20V20.0056Z" fill="white"/>
<path d="M89.5073 37.7151H88.8666L95.6195 20.0056H99.6678L105.752 35.8268L106.5 37.7151H102.299L100.909 33.9609H94.0546L92.6881 37.7151H89.5016H89.5073ZM97.5075 24.2346L95.1602 30.7486H99.8549L97.5075 24.2346Z" fill="white"/>
<path d="M21.4912 37.648H20.8505L27.575 20.0112H31.612L37.6731 35.771L38.4216 37.6536H34.2372L32.8537 33.9162H26.0272L24.6664 37.6536H21.4912V37.648ZM29.4631 24.2179L27.1214 30.7095H31.7991L29.4631 24.2179Z" fill="white"/>
<path d="M20.1474 37.648L10.5483 23.3575H6.5L15.946 37.648H19.0021H20.1474Z" fill="white"/>
<path opacity="0.2" d="M10.5483 23.3631H6.5L7.668 25.1341H11.739L10.5483 23.3631Z" fill="black"/>
<path opacity="0.2" d="M16.0821 31.5978C15.2883 31.905 14.3585 32.0615 13.2699 32.0615H12.2493L13.4173 33.8268C14.8121 33.8101 16.0424 33.5643 17.0914 33.1006L16.0821 31.5978Z" fill="black"/>
<path fill-rule="evenodd" clip-rule="evenodd" d="M17.8285 21.6086C16.5981 20.536 14.8631 20.0053 12.6235 20.0053H6.50002V23.3628H13.2755C14.9482 23.3628 16.2522 24.7259 16.1445 26.2231C16.0425 27.5918 14.7781 28.6868 13.2529 28.6868H6.50569V37.6533H10.1174V32.0667H13.2812C14.7951 32.0667 16.0198 31.7706 16.9666 31.1784C18.9228 29.955 19.6825 27.9661 19.6825 25.955C19.6825 25.3237 19.6598 24.0052 18.8037 22.7036C18.4692 22.2008 18.1063 21.8432 17.8398 21.6142L17.8285 21.6086Z" fill="white"/>
</svg>
